<svg xmlns="http://www.w3.org/2000/svg" width="640" height="400" viewBox="0 0 640 400" role="img" aria-labelledby="title desc">
  <title id="title">Contrastive Hypersphere workflow placeholder</title>
  <desc id="desc">Temporary workflow diagram placeholder for the Contrastive Hypersphere publication.</desc>
  <defs>
    <marker id="arrow" markerWidth="10" markerHeight="10" refX="8" refY="5" orient="auto">
      <path d="M0 0 10 5 0 10Z" fill="#4772c5"/>
    </marker>
  </defs>
  <rect width="640" height="400" rx="24" fill="#f7f9fc"/>
  <text x="40" y="54" fill="#132238" font-family="Arial, sans-serif" font-size="25" font-weight="700">Contrastive Hypersphere</text>
  <text x="40" y="84" fill="#5b6b80" font-family="Arial, sans-serif" font-size="15">Workflow figure placeholder</text>
  <g font-family="Arial, sans-serif" text-anchor="middle">
    <rect x="40" y="142" width="128" height="112" rx="16" fill="#e8f0ff" stroke="#8ca9dc" stroke-width="2"/>
    <text x="104" y="190" fill="#245fca" font-size="17" font-weight="700">Cover-text</text>
    <text x="104" y="216" fill="#5b6b80" font-size="14">examples</text>
    <path d="M178 198H234" stroke="#4772c5" stroke-width="3" marker-end="url(#arrow)"/>
    <rect x="244" y="142" width="128" height="112" rx="16" fill="#ffffff" stroke="#8ca9dc" stroke-width="2"/>
    <text x="308" y="190" fill="#132238" font-size="17" font-weight="700">Representation</text>
    <text x="308" y="216" fill="#5b6b80" font-size="14">learning</text>
    <path d="M382 198H438" stroke="#4772c5" stroke-width="3" marker-end="url(#arrow)"/>
    <circle cx="510" cy="198" r="64" fill="#eef8f4" stroke="#65a88a" stroke-width="3"/>
    <circle cx="491" cy="181" r="8" fill="#65a88a"/>
    <circle cx="528" cy="176" r="8" fill="#65a88a"/>
    <circle cx="519" cy="215" r="8" fill="#65a88a"/>
    <text x="510" y="294" fill="#132238" font-size="17" font-weight="700">One-class boundary</text>
  </g>
  <rect x="40" y="336" width="560" height="34" rx="17" fill="#eef2f7"/>
  <text x="320" y="358" fill="#8494a7" font-family="Arial, sans-serif" font-size="14" text-anchor="middle">Replace with the final paper workflow figure</text>
</svg>
